<?xml version="1.0" encoding="UTF-8" ?>
<svg version="1.1" width="45" height="90" xmlns="http://www.w3.org/2000/svg" shape-rendering="crispEdges">
<rect x="12" y="0" width="3" height="3" fill="#171522" />
<rect x="15" y="0" width="3" height="3" fill="#171522" />
<rect x="18" y="0" width="3" height="3" fill="#171522" />
<rect x="21" y="0" width="3" height="3" fill="#171522" />
<rect x="24" y="0" width="3" height="3" fill="#171522" />
<rect x="27" y="0" width="3" height="3" fill="#171522" />
<rect x="9" y="3" width="3" height="3" fill="#171522" />
<rect x="12" y="3" width="3" height="3" fill="#353646" />
<rect x="15" y="3" width="3" height="3" fill="#353646" />
<rect x="18" y="3" width="3" height="3" fill="#23222F" />
<rect x="21" y="3" width="3" height="3" fill="#353646" />
<rect x="24" y="3" width="3" height="3" fill="#353646" />
<rect x="27" y="3" width="3" height="3" fill="#353646" />
<rect x="30" y="3" width="3" height="3" fill="#171522" />
<rect x="6" y="6" width="3" height="3" fill="#171522" />
<rect x="9" y="6" width="3" height="3" fill="#353646" />
<rect x="12" y="6" width="3" height="3" fill="#23222F" />
<rect x="15" y="6" width="3" height="3" fill="#353646" />
<rect x="18" y="6" width="3" height="3" fill="#353646" />
<rect x="21" y="6" width="3" height="3" fill="#353646" />
<rect x="24" y="6" width="3" height="3" fill="#353646" />
<rect x="27" y="6" width="3" height="3" fill="#353646" />
<rect x="30" y="6" width="3" height="3" fill="#555D65" />
<rect x="33" y="6" width="3" height="3" fill="#171522" />
<rect x="3" y="9" width="3" height="3" fill="#171522" />
<rect x="6" y="9" width="3" height="3" fill="#353646" />
<rect x="9" y="9" width="3" height="3" fill="#555D65" />
<rect x="12" y="9" width="3" height="3" fill="#23222F" />
<rect x="15" y="9" width="3" height="3" fill="#353646" />
<rect x="18" y="9" width="3" height="3" fill="#23222F" />
<rect x="21" y="9" width="3" height="3" fill="#353646" />
<rect x="24" y="9" width="3" height="3" fill="#555D65" />
<rect x="27" y="9" width="3" height="3" fill="#555D65" />
<rect x="30" y="9" width="3" height="3" fill="#353646" />
<rect x="33" y="9" width="3" height="3" fill="#23222F" />
<rect x="36" y="9" width="3" height="3" fill="#171522" />
<rect x="3" y="12" width="3" height="3" fill="#171522" />
<rect x="6" y="12" width="3" height="3" fill="#23222F" />
<rect x="9" y="12" width="3" height="3" fill="#353646" />
<rect x="12" y="12" width="3" height="3" fill="#353646" />
<rect x="15" y="12" width="3" height="3" fill="#23222F" />
<rect x="18" y="12" width="3" height="3" fill="#353646" />
<rect x="21" y="12" width="3" height="3" fill="#23222F" />
<rect x="24" y="12" width="3" height="3" fill="#353646" />
<rect x="27" y="12" width="3" height="3" fill="#353646" />
<rect x="30" y="12" width="3" height="3" fill="#353646" />
<rect x="33" y="12" width="3" height="3" fill="#353646" />
<rect x="36" y="12" width="3" height="3" fill="#171522" />
<rect x="3" y="15" width="3" height="3" fill="#171522" />
<rect x="6" y="15" width="3" height="3" fill="#23222F" />
<rect x="9" y="15" width="3" height="3" fill="#353646" />
<rect x="12" y="15" width="3" height="3" fill="#353646" />
<rect x="15" y="15" width="3" height="3" fill="#353646" />
<rect x="18" y="15" width="3" height="3" fill="#23222F" />
<rect x="21" y="15" width="3" height="3" fill="#23222F" />
<rect x="24" y="15" width="3" height="3" fill="#23222F" />
<rect x="27" y="15" width="3" height="3" fill="#353646" />
<rect x="30" y="15" width="3" height="3" fill="#353646" />
<rect x="33" y="15" width="3" height="3" fill="#353646" />
<rect x="36" y="15" width="3" height="3" fill="#171522" />
<rect x="3" y="18" width="3" height="3" fill="#171522" />
<rect x="6" y="18" width="3" height="3" fill="#353646" />
<rect x="9" y="18" width="3" height="3" fill="#23222F" />
<rect x="12" y="18" width="3" height="3" fill="#353646" />
<rect x="15" y="18" width="3" height="3" fill="#23222F" />
<rect x="18" y="18" width="3" height="3" fill="#353646" />
<rect x="21" y="18" width="3" height="3" fill="#353646" />
<rect x="24" y="18" width="3" height="3" fill="#F4B9A4" />
<rect x="27" y="18" width="3" height="3" fill="#F4B9A4" />
<rect x="30" y="18" width="3" height="3" fill="#353646" />
<rect x="33" y="18" width="3" height="3" fill="#353646" />
<rect x="36" y="18" width="3" height="3" fill="#171522" />
<rect x="3" y="21" width="3" height="3" fill="#171522" />
<rect x="6" y="21" width="3" height="3" fill="#F4B9A4" />
<rect x="9" y="21" width="3" height="3" fill="#353646" />
<rect x="12" y="21" width="3" height="3" fill="#353646" />
<rect x="15" y="21" width="3" height="3" fill="#F4B9A4" />
<rect x="18" y="21" width="3" height="3" fill="#171522" />
<rect x="21" y="21" width="3" height="3" fill="#353646" />
<rect x="24" y="21" width="3" height="3" fill="#FFD5BE" />
<rect x="27" y="21" width="3" height="3" fill="#171522" />
<rect x="30" y="21" width="3" height="3" fill="#F4B9A4" />
<rect x="33" y="21" width="3" height="3" fill="#23222F" />
<rect x="36" y="21" width="3" height="3" fill="#171522" />
<rect x="3" y="24" width="3" height="3" fill="#171522" />
<rect x="6" y="24" width="3" height="3" fill="#FFD5BE" />
<rect x="9" y="24" width="3" height="3" fill="#353646" />
<rect x="12" y="24" width="3" height="3" fill="#353646" />
<rect x="15" y="24" width="3" height="3" fill="#FFD5BE" />
<rect x="18" y="24" width="3" height="3" fill="#6B8FA7" />
<rect x="21" y="24" width="3" height="3" fill="#FFD5BE" />
<rect x="24" y="24" width="3" height="3" fill="#FFD5BE" />
<rect x="27" y="24" width="3" height="3" fill="#6B8FA7" />
<rect x="30" y="24" width="3" height="3" fill="#FFD5BE" />
<rect x="33" y="24" width="3" height="3" fill="#171522" />
<rect x="6" y="27" width="3" height="3" fill="#171522" />
<rect x="9" y="27" width="3" height="3" fill="#353646" />
<rect x="12" y="27" width="3" height="3" fill="#FFD5BE" />
<rect x="15" y="27" width="3" height="3" fill="#FFD5BE" />
<rect x="18" y="27" width="3" height="3" fill="#FFD5BE" />
<rect x="21" y="27" width="3" height="3" fill="#FFD5BE" />
<rect x="24" y="27" width="3" height="3" fill="#FFD5BE" />
<rect x="27" y="27" width="3" height="3" fill="#FFD5BE" />
<rect x="30" y="27" width="3" height="3" fill="#FFD5BE" />
<rect x="33" y="27" width="3" height="3" fill="#171522" />
<rect x="9" y="30" width="3" height="3" fill="#171522" />
<rect x="12" y="30" width="3" height="3" fill="#171522" />
<rect x="15" y="30" width="3" height="3" fill="#FFD5BE" />
<rect x="18" y="30" width="3" height="3" fill="#FFD5BE" />
<rect x="21" y="30" width="3" height="3" fill="#FFD5BE" />
<rect x="24" y="30" width="3" height="3" fill="#FFD5BE" />
<rect x="27" y="30" width="3" height="3" fill="#FFD5BE" />
<rect x="30" y="30" width="3" height="3" fill="#171522" />
<rect x="33" y="30" width="3" height="3" fill="#171522" />
<rect x="36" y="30" width="3" height="3" fill="#171522" />
<rect x="15" y="33" width="3" height="3" fill="#171522" />
<rect x="18" y="33" width="3" height="3" fill="#FFFFFF" />
<rect x="21" y="33" width="3" height="3" fill="#F4B9A4" />
<rect x="24" y="33" width="3" height="3" fill="#FFFFFF" />
<rect x="27" y="33" width="3" height="3" fill="#171522" />
<rect x="30" y="33" width="3" height="3" fill="#3A4466" />
<rect x="33" y="33" width="3" height="3" fill="#3A4466" />
<rect x="36" y="33" width="3" height="3" fill="#3A4466" />
<rect x="39" y="33" width="3" height="3" fill="#171522" />
<rect x="9" y="36" width="3" height="3" fill="#171522" />
<rect x="12" y="36" width="3" height="3" fill="#171522" />
<rect x="15" y="36" width="3" height="3" fill="#484A77" />
<rect x="18" y="36" width="3" height="3" fill="#484A77" />
<rect x="21" y="36" width="3" height="3" fill="#323353" />
<rect x="24" y="36" width="3" height="3" fill="#171522" />
<rect x="27" y="36" width="3" height="3" fill="#171522" />
<rect x="30" y="36" width="3" height="3" fill="#3A4466" />
<rect x="33" y="36" width="3" height="3" fill="#3A4466" />
<rect x="36" y="36" width="3" height="3" fill="#171522" />
<rect x="39" y="36" width="3" height="3" fill="#171522" />
<rect x="42" y="36" width="3" height="3" fill="#171522" />
<rect x="6" y="39" width="3" height="3" fill="#171522" />
<rect x="9" y="39" width="3" height="3" fill="#FFFFFF" />
<rect x="12" y="39" width="3" height="3" fill="#484A77" />
<rect x="15" y="39" width="3" height="3" fill="#484A77" />
<rect x="18" y="39" width="3" height="3" fill="#323353" />
<rect x="21" y="39" width="3" height="3" fill="#171522" />
<rect x="24" y="39" width="3" height="3" fill="#3A4466" />
<rect x="27" y="39" width="3" height="3" fill="#3A4466" />
<rect x="30" y="39" width="3" height="3" fill="#3A4466" />
<rect x="33" y="39" width="3" height="3" fill="#3A4466" />
<rect x="36" y="39" width="3" height="3" fill="#3A4466" />
<rect x="39" y="39" width="3" height="3" fill="#171522" />
<rect x="3" y="42" width="3" height="3" fill="#171522" />
<rect x="6" y="42" width="3" height="3" fill="#484A77" />
<rect x="9" y="42" width="3" height="3" fill="#171522" />
<rect x="12" y="42" width="3" height="3" fill="#171522" />
<rect x="15" y="42" width="3" height="3" fill="#171522" />
<rect x="18" y="42" width="3" height="3" fill="#171522" />
<rect x="21" y="42" width="3" height="3" fill="#3A4466" />
<rect x="24" y="42" width="3" height="3" fill="#3A4466" />
<rect x="27" y="42" width="3" height="3" fill="#FFFFFF" />
<rect x="30" y="42" width="3" height="3" fill="#FFFFFF" />
<rect x="33" y="42" width="3" height="3" fill="#0095E9" />
<rect x="36" y="42" width="3" height="3" fill="#3A4466" />
<rect x="39" y="42" width="3" height="3" fill="#171522" />
<rect x="3" y="45" width="3" height="3" fill="#171522" />
<rect x="6" y="45" width="3" height="3" fill="#484A77" />
<rect x="9" y="45" width="3" height="3" fill="#FFFFFF" />
<rect x="12" y="45" width="3" height="3" fill="#484A77" />
<rect x="15" y="45" width="3" height="3" fill="#171522" />
<rect x="18" y="45" width="3" height="3" fill="#171522" />
<rect x="21" y="45" width="3" height="3" fill="#171522" />
<rect x="24" y="45" width="3" height="3" fill="#171522" />
<rect x="27" y="45" width="3" height="3" fill="#0095E9" />
<rect x="30" y="45" width="3" height="3" fill="#0095E9" />
<rect x="33" y="45" width="3" height="3" fill="#8B9BB4" />
<rect x="36" y="45" width="3" height="3" fill="#171522" />
<rect x="0" y="48" width="3" height="3" fill="#171522" />
<rect x="3" y="48" width="3" height="3" fill="#171522" />
<rect x="6" y="48" width="3" height="3" fill="#171522" />
<rect x="9" y="48" width="3" height="3" fill="#171522" />
<rect x="12" y="48" width="3" height="3" fill="#484A77" />
<rect x="15" y="48" width="3" height="3" fill="#484A77" />
<rect x="18" y="48" width="3" height="3" fill="#171522" />
<rect x="21" y="48" width="3" height="3" fill="#FFD5BE" />
<rect x="24" y="48" width="3" height="3" fill="#FFD5BE" />
<rect x="27" y="48" width="3" height="3" fill="#171522" />
<rect x="30" y="48" width="3" height="3" fill="#171522" />
<rect x="33" y="48" width="3" height="3" fill="#C7DCD0" />
<rect x="36" y="48" width="3" height="3" fill="#171522" />
<rect x="0" y="51" width="3" height="3" fill="#171522" />
<rect x="3" y="51" width="3" height="3" fill="#AB947A" />
<rect x="6" y="51" width="3" height="3" fill="#AB947A" />
<rect x="9" y="51" width="3" height="3" fill="#AB947A" />
<rect x="12" y="51" width="3" height="3" fill="#FFFFFF" />
<rect x="15" y="51" width="3" height="3" fill="#484A77" />
<rect x="18" y="51" width="3" height="3" fill="#171522" />
<rect x="21" y="51" width="3" height="3" fill="#FFD5BE" />
<rect x="24" y="51" width="3" height="3" fill="#FFD5BE" />
<rect x="27" y="51" width="3" height="3" fill="#FFFFFF" />
<rect x="30" y="51" width="3" height="3" fill="#484A77" />
<rect x="33" y="51" width="3" height="3" fill="#484A77" />
<rect x="36" y="51" width="3" height="3" fill="#171522" />
<rect x="0" y="54" width="3" height="3" fill="#171522" />
<rect x="3" y="54" width="3" height="3" fill="#171522" />
<rect x="6" y="54" width="3" height="3" fill="#171522" />
<rect x="9" y="54" width="3" height="3" fill="#171522" />
<rect x="12" y="54" width="3" height="3" fill="#C7DCD0" />
<rect x="15" y="54" width="3" height="3" fill="#484A77" />
<rect x="18" y="54" width="3" height="3" fill="#323353" />
<rect x="21" y="54" width="3" height="3" fill="#171522" />
<rect x="24" y="54" width="3" height="3" fill="#171522" />
<rect x="27" y="54" width="3" height="3" fill="#171522" />
<rect x="30" y="54" width="3" height="3" fill="#171522" />
<rect x="33" y="54" width="3" height="3" fill="#171522" />
<rect x="0" y="57" width="3" height="3" fill="#171522" />
<rect x="3" y="57" width="3" height="3" fill="#171522" />
<rect x="6" y="57" width="3" height="3" fill="#171522" />
<rect x="9" y="57" width="3" height="3" fill="#171522" />
<rect x="12" y="57" width="3" height="3" fill="#484A77" />
<rect x="15" y="57" width="3" height="3" fill="#FFFFFF" />
<rect x="18" y="57" width="3" height="3" fill="#323353" />
<rect x="21" y="57" width="3" height="3" fill="#C7DCD0" />
<rect x="24" y="57" width="3" height="3" fill="#C7DCD0" />
<rect x="27" y="57" width="3" height="3" fill="#484A77" />
<rect x="30" y="57" width="3" height="3" fill="#171522" />
<rect x="3" y="60" width="3" height="3" fill="#171522" />
<rect x="6" y="60" width="3" height="3" fill="#171522" />
<rect x="9" y="60" width="3" height="3" fill="#171522" />
<rect x="12" y="60" width="3" height="3" fill="#FFFFFF" />
<rect x="15" y="60" width="3" height="3" fill="#484A77" />
<rect x="18" y="60" width="3" height="3" fill="#323353" />
<rect x="21" y="60" width="3" height="3" fill="#FFFFFF" />
<rect x="24" y="60" width="3" height="3" fill="#484A77" />
<rect x="27" y="60" width="3" height="3" fill="#C7DCD0" />
<rect x="30" y="60" width="3" height="3" fill="#171522" />
<rect x="3" y="63" width="3" height="3" fill="#171522" />
<rect x="6" y="63" width="3" height="3" fill="#FFFFFF" />
<rect x="9" y="63" width="3" height="3" fill="#171522" />
<rect x="12" y="63" width="3" height="3" fill="#171522" />
<rect x="15" y="63" width="3" height="3" fill="#171522" />
<rect x="18" y="63" width="3" height="3" fill="#171522" />
<rect x="21" y="63" width="3" height="3" fill="#171522" />
<rect x="24" y="63" width="3" height="3" fill="#171522" />
<rect x="27" y="63" width="3" height="3" fill="#171522" />
<rect x="30" y="63" width="3" height="3" fill="#171522" />
<rect x="3" y="66" width="3" height="3" fill="#171522" />
<rect x="6" y="66" width="3" height="3" fill="#FFD5BE" />
<rect x="9" y="66" width="3" height="3" fill="#171522" />
<rect x="12" y="66" width="3" height="3" fill="#323353" />
<rect x="15" y="66" width="3" height="3" fill="#323353" />
<rect x="18" y="66" width="3" height="3" fill="#171522" />
<rect x="21" y="66" width="3" height="3" fill="#171522" />
<rect x="24" y="66" width="3" height="3" fill="#323353" />
<rect x="27" y="66" width="3" height="3" fill="#323353" />
<rect x="30" y="66" width="3" height="3" fill="#171522" />
<rect x="6" y="69" width="3" height="3" fill="#171522" />
<rect x="9" y="69" width="3" height="3" fill="#171522" />
<rect x="12" y="69" width="3" height="3" fill="#323353" />
<rect x="15" y="69" width="3" height="3" fill="#171522" />
<rect x="21" y="69" width="3" height="3" fill="#171522" />
<rect x="24" y="69" width="3" height="3" fill="#323353" />
<rect x="27" y="69" width="3" height="3" fill="#C7DCD0" />
<rect x="30" y="69" width="3" height="3" fill="#171522" />
<rect x="9" y="72" width="3" height="3" fill="#171522" />
<rect x="12" y="72" width="3" height="3" fill="#484A77" />
<rect x="15" y="72" width="3" height="3" fill="#171522" />
<rect x="24" y="72" width="3" height="3" fill="#171522" />
<rect x="27" y="72" width="3" height="3" fill="#484A77" />
<rect x="30" y="72" width="3" height="3" fill="#171522" />
<rect x="9" y="75" width="3" height="3" fill="#171522" />
<rect x="12" y="75" width="3" height="3" fill="#C7DCD0" />
<rect x="15" y="75" width="3" height="3" fill="#171522" />
<rect x="24" y="75" width="3" height="3" fill="#171522" />
<rect x="27" y="75" width="3" height="3" fill="#484A77" />
<rect x="30" y="75" width="3" height="3" fill="#171522" />
<rect x="9" y="78" width="3" height="3" fill="#171522" />
<rect x="12" y="78" width="3" height="3" fill="#484A77" />
<rect x="15" y="78" width="3" height="3" fill="#171522" />
<rect x="24" y="78" width="3" height="3" fill="#171522" />
<rect x="27" y="78" width="3" height="3" fill="#484A77" />
<rect x="30" y="78" width="3" height="3" fill="#171522" />
<rect x="9" y="81" width="3" height="3" fill="#171522" />
<rect x="12" y="81" width="3" height="3" fill="#484A77" />
<rect x="15" y="81" width="3" height="3" fill="#171522" />
<rect x="24" y="81" width="3" height="3" fill="#171522" />
<rect x="27" y="81" width="3" height="3" fill="#484A77" />
<rect x="30" y="81" width="3" height="3" fill="#171522" />
<rect x="9" y="84" width="3" height="3" fill="#171522" />
<rect x="12" y="84" width="3" height="3" fill="#171522" />
<rect x="15" y="84" width="3" height="3" fill="#171522" />
<rect x="24" y="84" width="3" height="3" fill="#171522" />
<rect x="27" y="84" width="3" height="3" fill="#171522" />
<rect x="30" y="84" width="3" height="3" fill="#171522" />
<rect x="9" y="87" width="3" height="3" fill="#171522" />
<rect x="12" y="87" width="3" height="3" fill="#171522" />
<rect x="15" y="87" width="3" height="3" fill="#171522" />
<rect x="27" y="87" width="3" height="3" fill="#171522" />
<rect x="30" y="87" width="3" height="3" fill="#171522" />
<rect x="33" y="87" width="3" height="3" fill="#171522" />
</svg>